# xmcd
# 
# Track frame offsets:
#     150
#     10017
#     24544
#     43517
#     63105
#     90044
#     114707
#     128519
#     145514
#     159302
#     175711
#     190081
# 
# Disc length: 2695
# 
# Revision: 1
# Processed by: cddbd v1.5.2PL0 Copyright (c) Steve Scherf et al.
# Submitted via: BonkEnc v1.0.8
# 
DISCID=7f0a850c
DTITLE=Jeff Dearborn and The Contoocook Blues Society - Junkyard Dog
DYEAR=2006
DGENRE=Blues
TTITLE0=Ponderosa Stomp
TTITLE1=Sweet Dough Baker
TTITLE2=Cross My Heart
TTITLE3=Junkyard Dog
TTITLE4=I Can't Stand You When Your Drinking
TTITLE5=Moody Blues
TTITLE6=Blues With A Feeling
TTITLE7=It's Obdatious
TTITLE8=Sleeping In The Ground
TTITLE9=Hank
TTITLE10=Problems Enough To Drink
TTITLE11=Jug Band Waltz
EXTD=
EXTT0=
EXTT1=
EXTT2=
EXTT3=
EXTT4=
EXTT5=
EXTT6=
EXTT7=
EXTT8=
EXTT9=
EXTT10=
EXTT11=
PLAYORDER=
